<?xml version="1.0" encoding="UTF-8" standalone="no"?>
<!-- Generator: Adobe Illustrator 16.0.0, SVG Export Plug-In . SVG Version: 6.00 Build 0)  -->

<svg
   xmlns:dc="http://purl.org/dc/elements/1.1/"
   xmlns:cc="http://creativecommons.org/ns#"
   xmlns:rdf="http://www.w3.org/1999/02/22-rdf-syntax-ns#"
   xmlns:svg="http://www.w3.org/2000/svg"
   xmlns="http://www.w3.org/2000/svg"
   xmlns:xlink="http://www.w3.org/1999/xlink"
   xmlns:sodipodi="http://sodipodi.sourceforge.net/DTD/sodipodi-0.dtd"
   xmlns:inkscape="http://www.inkscape.org/namespaces/inkscape"
   version="1.1"
   id="d28"
   x="0px"
   y="0px"
   width="999.99994"
   height="734.09027"
   viewBox="-202.282 215.02 999.99994 734.09026"
   enable-background="new -202.282 215.02 1000 412.836"
   xml:space="preserve"
   sodipodi:docname="Aqua_(2019).svg"
   inkscape:version="0.92.3 (2405546, 2018-03-11)"><metadata
   id="metadata17"><rdf:RDF><cc:Work
       rdf:about=""><dc:format>image/svg+xml</dc:format><dc:type
         rdf:resource="http://purl.org/dc/dcmitype/StillImage" /><dc:title></dc:title></cc:Work></rdf:RDF></metadata><defs
   id="defs15"><linearGradient
     inkscape:collect="always"
     xlink:href="#linearGradient1038"
     id="linearGradient1040"
     x1="-154.58093"
     y1="310.90747"
     x2="-68.777924"
     y2="313.58636"
     gradientUnits="userSpaceOnUse" /><linearGradient
     inkscape:collect="always"
     id="linearGradient1038"><stop
       style="stop-color:#9ecc3b;stop-opacity:1;"
       offset="0"
       id="stop1034" /><stop
       style="stop-color:#0694d4;stop-opacity:1"
       offset="1"
       id="stop1036" /></linearGradient><linearGradient
     inkscape:collect="always"
     xlink:href="#linearGradient951"
     id="linearGradient1000"
     gradientUnits="userSpaceOnUse"
     x1="-101.87359"
     y1="357.50549"
     x2="-336.49329"
     y2="309.94568" /><linearGradient
     inkscape:collect="always"
     id="linearGradient951"><stop
       style="stop-color:#90bc72;stop-opacity:1"
       offset="0"
       id="stop947" /><stop
       id="stop971"
       offset="0.56887269"
       style="stop-color:#24a675;stop-opacity:1" /><stop
       id="stop955"
       offset="0.61622477"
       style="stop-color:#27a67c;stop-opacity:1" /><stop
       style="stop-color:#1ebee4;stop-opacity:1"
       offset="0.75239056"
       id="stop969" /><stop
       style="stop-color:#1e81c2;stop-opacity:1"
       offset="1"
       id="stop949" /></linearGradient><linearGradient
     inkscape:collect="always"
     xlink:href="#linearGradient1030"
     id="linearGradient1002"
     gradientUnits="userSpaceOnUse"
     x1="-117.63672"
     y1="318.39923"
     x2="-135.40839"
     y2="310.08646" /><linearGradient
     inkscape:collect="always"
     id="linearGradient1030"><stop
       style="stop-color:#107c47;stop-opacity:1"
       offset="0"
       id="stop1026" /><stop
       style="stop-color:#108c47;stop-opacity:0;"
       offset="1"
       id="stop1028" /></linearGradient><linearGradient
     inkscape:collect="always"
     xlink:href="#linearGradient1048"
     id="linearGradient1050"
     x1="-228.47121"
     y1="284.9231"
     x2="-238.6571"
     y2="299.08328"
     gradientUnits="userSpaceOnUse" /><linearGradient
     inkscape:collect="always"
     id="linearGradient1048"><stop
       style="stop-color:#53bd6e;stop-opacity:1"
       offset="0"
       id="stop1044" /><stop
       style="stop-color:#86d46b;stop-opacity:1"
       offset="1"
       id="stop1046" /></linearGradient><linearGradient
     inkscape:collect="always"
     xlink:href="#linearGradient1108"
     id="linearGradient1004"
     gradientUnits="userSpaceOnUse"
     x1="-299.70245"
     y1="293.56018"
     x2="-295.33282"
     y2="331.34415" /><linearGradient
     id="linearGradient1108"
     inkscape:collect="always"><stop
       id="stop1104"
       offset="0"
       style="stop-color:#1ccae8;stop-opacity:1" /><stop
       id="stop1106"
       offset="1"
       style="stop-color:#287ccf;stop-opacity:1" /></linearGradient><linearGradient
     inkscape:collect="always"
     xlink:href="#linearGradient933"
     id="linearGradient1006"
     gradientUnits="userSpaceOnUse"
     x1="-287.18109"
     y1="349.38483"
     x2="-133.28751"
     y2="298.00031" /><linearGradient
     inkscape:collect="always"
     id="linearGradient933"><stop
       style="stop-color:#204396;stop-opacity:1"
       offset="0"
       id="stop929" /><stop
       id="stop945"
       offset="0.54881597"
       style="stop-color:#1da0cf;stop-opacity:1;" /><stop
       style="stop-color:#204396;stop-opacity:1"
       offset="1"
       id="stop931" /></linearGradient><linearGradient
     inkscape:collect="always"
     xlink:href="#linearGradient1056"
     id="linearGradient1058"
     x1="-248.2934"
     y1="303.28085"
     x2="-241.06042"
     y2="292.41089"
     gradientUnits="userSpaceOnUse" /><linearGradient
     inkscape:collect="always"
     id="linearGradient1056"><stop
       style="stop-color:#53bd6e;stop-opacity:1;"
       offset="0"
       id="stop1052" /><stop
       style="stop-color:#81c56b;stop-opacity:1"
       offset="1"
       id="stop1054" /></linearGradient><linearGradient
     inkscape:collect="always"
     xlink:href="#linearGradient1064"
     id="linearGradient1066"
     x1="-251.50194"
     y1="322.00299"
     x2="-296.73685"
     y2="361.52411"
     gradientUnits="userSpaceOnUse" /><linearGradient
     inkscape:collect="always"
     id="linearGradient1064"><stop
       style="stop-color:#1cb2e8;stop-opacity:1;"
       offset="0"
       id="stop1060" /><stop
       style="stop-color:#1e4799;stop-opacity:1"
       offset="1"
       id="stop1062" /></linearGradient><linearGradient
     inkscape:collect="always"
     xlink:href="#linearGradient909"
     id="linearGradient1008"
     gradientUnits="userSpaceOnUse"
     x1="-321.94122"
     y1="330.49817"
     x2="-332.216"
     y2="305.68625" /><linearGradient
     inkscape:collect="always"
     id="linearGradient909"><stop
       style="stop-color:#1a68b1;stop-opacity:0.9852941"
       offset="0"
       id="stop905" /><stop
       style="stop-color:#1cafd8;stop-opacity:1"
       offset="1"
       id="stop907" /></linearGradient><linearGradient
     inkscape:collect="always"
     xlink:href="#linearGradient917"
     id="linearGradient1010"
     gradientUnits="userSpaceOnUse"
     x1="-378.57156"
     y1="300.98776"
     x2="-332.72623"
     y2="297.18088" /><linearGradient
     inkscape:collect="always"
     id="linearGradient917"><stop
       style="stop-color:#12448b;stop-opacity:0.9254902"
       offset="0"
       id="stop913" /><stop
       style="stop-color:#1d9bd4;stop-opacity:0.99509805"
       offset="1"
       id="stop915" /></linearGradient><linearGradient
     inkscape:collect="always"
     xlink:href="#linearGradient893"
     id="linearGradient1012"
     gradientUnits="userSpaceOnUse"
     x1="-344.76151"
     y1="286.74741"
     x2="-341.19901"
     y2="313.74506" /><linearGradient
     inkscape:collect="always"
     id="linearGradient893"><stop
       style="stop-color:#1a97d0;stop-opacity:1"
       offset="0"
       id="stop889" /><stop
       style="stop-color:#0059b0;stop-opacity:1"
       offset="1"
       id="stop891" /></linearGradient><linearGradient
     inkscape:collect="always"
     xlink:href="#linearGradient1072"
     id="linearGradient1014"
     gradientUnits="userSpaceOnUse"
     x1="-201.73734"
     y1="362.26108"
     x2="-185.11604"
     y2="349.43216" /><linearGradient
     inkscape:collect="always"
     id="linearGradient1072"><stop
       style="stop-color:#50aa9a;stop-opacity:1;"
       offset="0"
       id="stop1068" /><stop
       style="stop-color:#97ca77;stop-opacity:1"
       offset="1"
       id="stop1070" /></linearGradient><linearGradient
     inkscape:collect="always"
     xlink:href="#linearGradient937"
     id="linearGradient907"
     x1="596.54559"
     y1="14.690837"
     x2="596.35437"
     y2="56.323673"
     gradientUnits="userSpaceOnUse"
     gradientTransform="translate(0,-228.29762)" /><linearGradient
     id="linearGradient937"
     inkscape:collect="always"><stop
       id="stop933"
       offset="0"
       style="stop-color:#263d8a;stop-opacity:1" /><stop
       id="stop935"
       offset="1"
       style="stop-color:#00bdef;stop-opacity:1" /></linearGradient><linearGradient
     inkscape:collect="always"
     xlink:href="#linearGradient937"
     id="linearGradient956"
     x1="550.4624"
     y1="299.42902"
     x2="805.97717"
     y2="288.73822"
     gradientUnits="userSpaceOnUse"
     gradientTransform="matrix(1.9718017,0,0,1.9718017,-820.7645,245.42031)" /></defs><sodipodi:namedview
   pagecolor="#ffffff"
   bordercolor="#666666"
   borderopacity="1"
   objecttolerance="10"
   gridtolerance="10"
   guidetolerance="10"
   inkscape:pageopacity="0"
   inkscape:pageshadow="2"
   inkscape:window-width="1366"
   inkscape:window-height="705"
   id="namedview13"
   showgrid="false"
   inkscape:zoom="0.35300002"
   inkscape:cx="958.39444"
   inkscape:cy="703.54801"
   inkscape:window-x="-8"
   inkscape:window-y="-8"
   inkscape:window-maximized="1"
   inkscape:current-layer="d28" />

<g
   id="g235"><path
     inkscape:connector-curvature="0"
     id="path882"
     d="m 361.86813,948.84278 c -35.48711,-2.339 -70.44421,-9.4873 -106.68883,-21.8165 C 222.4833,915.90412 197.26076,904.50381 148.22958,878.68625 124.60764,866.248 64.875829,836.5092 55.359129,832.44861 c -32.48086,-13.85886 -62.8700399,-21.72049 -97.55219,-25.23664 -11.13129,-1.1285 -38.06561,-1.56793 -50.08376,-0.81709 -24.041849,1.50194 -47.981939,5.2517 -75.597109,11.84079 -4.13297,0.98613 -7.58934,1.71808 -7.68083,1.62663 -0.27919,-0.27922 11.01745,-7.51867 17.19793,-11.02135 16.34428,-9.26278 34.13775,-16.31176 53.29821,-21.11438 13.321039,-3.33897 25.392429,-5.31868 42.258179,-6.93034 9.13617,-0.87297 43.0171,-0.87396 53.7357201,0 43.6433099,3.55235 83.2219799,13.47895 128.8613409,32.31947 4.87794,2.01368 21.66383,9.22068 37.30197,16.01559 50.76015,22.05564 67.41677,28.63675 89.73341,35.45398 36.59705,11.17948 71.0445,16.47052 107.9931,16.58728 28.02213,0.0885 49.83021,-2.20442 78.51673,-8.25553 58.74951,-12.3925 112.92861,-43.52811 163.30927,-93.85045 19.49318,-19.47053 33.75354,-36.21129 55.11833,-64.70509 10.91633,-14.55893 15.48116,-19.41857 19.53961,-20.80141 2.76822,-0.94319 5.22332,-0.59547 5.99659,0.84934 0.86629,1.61875 0.1118,4.26651 -3.48703,12.23588 -3.58099,7.92998 -4.63958,11.46924 -4.12768,13.79985 0.34375,1.56512 2.95457,4.09936 4.22326,4.09936 1.19382,0 3.76854,-1.47612 7.31186,-4.19191 4.99883,-3.83141 6.00061,-4.01327 11.57081,-2.1007 5.19056,1.78215 7.74556,1.98363 10.0492,0.79242 0.85602,-0.44272 4.38265,-3.49851 7.83697,-6.79063 6.34895,-6.051 9.32424,-8.09552 11.88686,-8.1684 3.36834,-0.0958 5.24011,2.50064 4.17849,5.79615 -0.33331,1.0347 -2.72278,5.05064 -5.30987,8.9243 -2.58714,3.87362 -5.25378,8.21687 -5.9259,9.65151 -4.72237,10.08077 4.68633,6.66098 14.99946,-5.45193 8.06464,-9.47199 14.48397,-18.9097 20.30188,-29.84799 3.4779,-6.53875 5.52142,-9.44225 7.85944,-11.16722 4.98161,-3.67531 10.33698,-0.63116 9.74411,5.53885 -0.4231,4.40309 -11.48901,25.96206 -22.74851,44.31938 -48.67193,79.35376 -118.85326,144.10304 -194.94333,179.85476 -42.9738,20.19169 -89.97131,32.95499 -134.07841,36.41209 -2.2955,0.18 -4.99533,0.4334 -5.99961,0.5632 -3.64036,0.4706 -42.1686,0.6017 -48.7795,0.166 z"
     style="fill:url(#linearGradient956);fill-opacity:1;stroke-width:0.52170581" /><path
     inkscape:connector-curvature="0"
     d="m 448.28599,481.42559 c 4.01573,-1.26664 7.64372,-3.84909 10.07837,-7.17397 3.77454,-5.15481 3.62872,-3.69138 3.81252,-38.25571 l 0.16528,-31.08517 -2.13613,-1.48034 c -3.4238,-2.37267 -7.64054,-7.29387 -9.38898,-10.95744 -3.13097,-6.5604 -3.8517,-13.43398 -2.11896,-20.20888 1.79576,-7.02134 5.68904,-12.92561 10.92447,-16.56722 l 2.62512,-1.82596 0.0156,-30.5198 c 0.0177,-32.88556 -0.0765,-34.22499 -2.71423,-38.68316 -1.86061,-3.14462 -5.32714,-6.36296 -8.7307,-8.10554 -2.60852,-1.33553 -3.3674,-1.46909 -8.34729,-1.46909 -5.00154,0 -5.73579,0.13065 -8.44318,1.50243 -3.43225,1.73904 -6.74305,4.83021 -8.64571,8.0722 -2.61406,4.4541 -2.71903,5.90694 -2.72779,37.75414 l -0.008,29.59078 2.88952,1.84839 c 14.47181,9.25751 18.38158,28.482 8.61952,42.38265 -2.61536,3.72414 -5.22154,6.1602 -9.31527,8.70706 l -2.24072,1.39411 0.16642,30.36797 c 0.15062,27.48603 0.25355,30.59086 1.08338,32.71572 2.16189,5.53597 7.034,10.15574 12.62225,11.96862 4.06086,1.3173 7.69934,1.32601 11.81387,0.0282 z m -12.75748,7.56673 c -6.93144,-1.90549 -14.28874,-7.85962 -17.19297,-13.91402 -2.99903,-6.25195 -2.99256,-6.16211 -2.99256,-41.43811 V 401.2011 l 3.78237,-1.8048 c 8.15395,-3.89072 12.91222,-11.36624 12.91222,-20.28558 0,-8.73877 -4.69776,-16.06378 -12.91222,-20.1335 l -3.78237,-1.87392 v -32.76245 c 0,-22.38053 0.18693,-33.63852 0.58968,-35.52709 1.97993,-9.28258 8.73946,-16.91664 17.81819,-20.1232 5.32229,-1.87979 12.11949,-1.87979 17.44167,0 9.07872,3.20656 15.83836,10.84062 17.81818,20.1232 0.40495,1.89828 0.58332,13.26077 0.56945,36.25856 l -0.0204,33.49393 -2.59372,1.26281 c -3.32185,1.6173 -8.00187,6.52094 -9.64133,10.10196 -2.55077,5.57169 -2.54362,13.43692 0.0177,18.85009 1.83244,3.8734 5.22384,7.50938 9.04753,9.69997 l 3.1798,1.82164 0.0156,32.88829 c 0.0156,35.77593 0.0276,35.62343 -2.97707,41.88729 -0.85779,1.78831 -2.86828,4.41901 -5.08251,6.65052 -5.58324,5.62685 -11.48535,8.06954 -19.31448,7.99362 -2.29551,-0.0225 -5.30257,-0.3508 -6.68238,-0.73012 z m -21.83605,42.80299 c -19.73645,-2.83116 -36.70023,-11.33396 -49.85014,-24.98664 -10.33166,-10.72673 -16.22391,-21.87716 -19.58615,-37.06474 -1.15735,-5.22772 -1.16695,-5.63657 -1.16825,-49.35553 0,-49.75731 -0.23425,-46.82988 4.09988,-51.53183 7.19046,-7.80077 17.19438,-6.40237 31.76625,4.44046 l 5.08658,3.78492 5.27945,-3.92906 c 6.01094,-4.47352 13.46158,-8.28129 17.67561,-9.03347 14.32682,-2.5572 23.81712,14.48088 14.03039,25.18903 -2.817,3.08234 -6.01558,4.72597 -10.30364,5.29484 l -2.7521,0.36509 0.19595,36.57805 c 0.21823,40.72572 0.0629,38.87545 3.92615,46.75133 2.87387,5.85866 9.31876,12.20228 15.24977,15.01015 5.70804,2.70229 9.01712,3.45881 15.12947,3.45881 6.12024,0 9.43432,-0.75924 15.10991,-3.46146 5.95047,-2.83308 12.43575,-9.20504 15.27445,-15.0075 3.62774,-7.41528 3.52653,-6.06843 3.52653,-46.93967 v -36.80807 l -2.60749,-0.61936 c -11.61056,-2.75805 -15.38803,-17.51939 -6.55023,-25.59663 3.59304,-3.28385 7.15447,-4.46432 13.29954,-4.40833 10.98634,0.10011 20.47831,6.03934 23.43409,14.66295 0.71713,2.09235 0.84959,7.37493 1.00214,39.97378 0.17686,37.79728 -0.058,45.13465 -1.69883,53.07867 -5.42245,26.25188 -24.9582,48.0716 -50.74137,56.67364 -8.56208,2.85655 -14.07364,3.75837 -24.39565,3.99164 -6.31243,0.14256 -11.04336,-0.025 -14.43236,-0.51107 z m 24.60558,6.95251 c 18.27155,-2.03143 35.71619,-10.58587 49.31153,-24.18117 10.7498,-10.74981 17.53756,-22.31101 21.35499,-36.3727 2.91993,-10.75608 2.87277,-9.09606 2.88383,-101.47275 0.008,-60.10701 0.17968,-85.95573 0.58671,-87.90744 1.02907,-4.93475 3.45322,-9.23833 7.46175,-13.24688 5.24685,-5.24684 8.58285,-6.72874 18.68385,-8.29966 1.06752,-0.16602 2.66065,-0.90741 3.54019,-1.64752 2.8348,-2.38534 3.12685,-3.52579 3.12685,-12.21067 0,-9.07347 -0.60158,-10.93888 -4.17568,-12.94766 l -1.96595,-1.10491 H 423.959 c -128.96524,0 -117.40121,-0.36806 -120.17715,3.8249 -1.28607,1.94249 -1.40142,2.58079 -1.56816,8.67803 -0.20138,7.36208 0.31486,10.12404 2.34268,12.53397 1.83332,2.17879 3.49382,2.92982 7.42965,3.36037 10.12724,1.10784 18.45455,7.57256 22.38346,17.37702 l 1.41341,3.52691 0.28182,89.2117 0.28193,89.21173 1.14922,5.01656 c 4.88927,21.34247 16.69485,38.77846 34.54559,51.02106 19.25986,13.20908 41.28775,18.40521 66.25659,15.62911 z m -22.69415,7.84765 c -30.52914,-3.13544 -56.95015,-18.71234 -72.92697,-42.99497 -6.8295,-10.37996 -11.15266,-21.73202 -13.51041,-35.47601 -0.46213,-2.69435 -0.70279,-26.70311 -0.91784,-91.55939 l -0.29137,-87.90744 -1.54639,-3.05182 c -1.73071,-3.41578 -5.38651,-6.99162 -8.87383,-8.67983 -1.27249,-0.61599 -4.4024,-1.43383 -6.95538,-1.81744 -7.38693,-1.10994 -11.42264,-3.85898 -14.12514,-9.6217 -1.25945,-2.68572 -1.38053,-3.55728 -1.54252,-11.1028 -0.13427,-6.26023 0.0138,-8.83996 0.63008,-10.95582 1.54699,-5.31349 5.7241,-9.41536 11.26298,-11.06023 2.55,-0.75727 13.72721,-0.83715 117.14408,-0.83715 103.41681,0 114.59405,0.0799 117.14404,0.83715 5.67585,1.68556 9.52061,5.58406 11.19826,11.35483 0.69236,2.38182 0.83316,4.6354 0.68265,10.92516 -0.22543,9.42153 -1.0335,11.87716 -5.18695,15.76227 -3.18429,2.97847 -5.22035,3.85065 -11.0334,4.72622 -2.97827,0.44861 -5.50233,1.19222 -7.22005,2.1271 -3.51974,1.9157 -7.41135,6.27045 -8.90176,9.96111 l -1.21062,2.99807 -0.28188,89.47256 -0.28182,89.47257 -1.16508,5.09409 c -2.80907,12.28174 -7.20867,22.71368 -13.71731,32.52465 -5.19812,7.83566 -16.2285,18.85634 -24.16422,24.143 -18.71547,12.46791 -41.41708,18.00673 -64.20915,15.66582 z M 649.06721,408.97613 c 0,-0.54007 -15.14507,-66.51141 -15.30602,-66.67235 -0.0605,-0.0606 -3.25529,14.72511 -7.09927,32.85716 -3.84398,18.13204 -7.09134,33.26082 -7.21634,33.6195 -0.17827,0.51179 2.98426,0.65213 14.69719,0.65213 8.20846,0 14.92444,-0.2054 14.92444,-0.45644 z m -38.609,7.36905 c -0.006,-1.32306 22.52428,-107.2717 22.90168,-107.70459 0.26253,-0.30115 25.16376,107.00806 25.11399,108.22629 -0.01,0.21521 -10.81528,0.39128 -24.01444,0.39128 -22.50681,0 -23.99862,-0.0568 -24.00123,-0.91298 z M 542.18626,533.5581 c -5.48725,-1.07836 -10.61608,-5.13308 -13.00184,-10.27871 -1.14885,-2.47804 -1.38618,-3.73818 -1.3987,-7.42809 -0.0136,-3.97811 0.16304,-4.80595 1.68548,-7.89989 4.09054,-8.31301 12.2387,-11.69529 22.4658,-9.32544 3.72154,0.86239 5.08893,0.45108 6.98319,-2.10044 0.70837,-0.95419 4.03925,-15.64496 11.65141,-51.38803 5.86272,-27.52849 10.66268,-50.22792 10.66664,-50.44312 0.006,-0.2152 -0.30744,-0.39128 -0.69204,-0.39128 -0.3845,0 -2.1367,-0.71834 -3.89359,-1.59627 -8.40009,-4.19753 -10.95938,-14.64039 -5.51376,-22.49834 3.77381,-5.4457 10.88232,-7.55134 19.04801,-5.64237 10.59516,2.47694 18.70899,11.75419 18.70899,21.39162 0,1.69794 -1.56329,10.29555 -3.65194,20.08375 -2.00856,9.41318 -3.65194,17.3138 -3.65194,17.55686 0,0.24311 14.79036,0.44199 32.86747,0.44199 18.07711,0 32.86747,-0.17051 32.86747,-0.37892 0,-0.20837 -2.15339,-9.65776 -4.78535,-20.99866 -3.21605,-13.8576 -4.78493,-21.64631 -4.78404,-23.74998 0.006,-9.33934 8.65322,-16.47467 17.91668,-14.78085 4.38499,0.80178 8.60147,3.3515 13.87472,8.38995 2.62773,2.51071 4.90581,4.56492 5.06243,4.56492 0.15656,0 2.27964,-1.50461 4.71789,-3.34356 14.72097,-11.10283 24.50843,-12.73084 31.92839,-5.31087 7.51539,7.51537 5.29626,20.00133 -4.38676,24.68254 l -2.99741,1.44905 12.7951,51.75932 12.79504,51.75938 2.95823,-0.3092 c 2.23979,-0.23409 3.88118,-0.0288 6.7587,0.84516 3.3001,1.0024 4.22373,1.57801 7.0158,4.37237 3.97206,3.97535 5.47175,7.50259 5.47175,12.86959 0,8.83374 -5.90983,15.92294 -14.78159,17.73137 -8.28547,1.68893 -20.80668,-3.75847 -34.41402,-14.97191 l -4.06816,-3.35238 -4.64302,4.4185 c -16.25469,15.46846 -32.5414,18.58352 -42.02315,8.03759 -2.95948,-3.29164 -4.41123,-7.19589 -4.41123,-11.86317 0,-8.70727 5.89277,-15.91772 14.52116,-17.76816 l 2.54441,-0.54569 -1.71641,-7.40723 c -0.94408,-4.07396 -3.30777,-14.39157 -5.25269,-22.92799 l -3.53623,-15.52075 h -39.17844 -39.17849 l -4.79761,22.56379 c -2.63868,12.41006 -4.79635,22.86375 -4.79474,23.2304 0,0.50638 0.79691,0.58535 3.30491,0.32837 3.7735,-0.3866 8.08284,0.62239 11.28095,2.64128 2.93324,1.85164 6.12039,5.7778 7.36189,9.06877 1.57482,4.17464 1.26018,10.22727 -0.74463,14.32501 -3.58949,7.33664 -12.44096,11.507 -20.20274,9.51851 -5.63125,-1.44267 -10.49302,-4.9548 -14.41249,-10.41169 -1.05088,-1.46307 -1.97836,-2.75245 -2.06116,-2.86526 -0.0829,-0.11278 -1.74302,1.29577 -3.6895,3.13024 -5.91625,5.5759 -11.92912,9.06449 -17.77066,10.31043 -3.09502,0.66016 -3.58887,0.66215 -6.81818,0.0276 z m 8.90505,6.77874 c 3.64235,-0.74527 11.37862,-4.53759 15.23595,-7.46875 l 3.08073,-2.34095 3.07019,2.77845 c 11.16607,10.10472 26.1505,10.14411 36.18625,0.095 11.21792,-11.23271 9.36368,-29.42887 -3.93142,-38.5798 -1.28528,-0.88459 -4.11668,-2.20572 -6.29204,-2.93573 l -3.95515,-1.32732 3.389,-16.04246 3.389,-16.04246 h 33.44813 33.44818 l 3.75748,16.3033 c 2.06663,8.96683 3.75127,16.65546 3.7436,17.08588 -0.008,0.43041 -0.97162,1.22455 -2.14217,1.76471 -1.1705,0.54017 -3.6304,2.38738 -5.46644,4.10489 -10.36582,9.69679 -10.58332,25.54617 -0.4893,35.66899 5.58079,5.5968 11.7125,7.8359 20.11014,7.34362 2.9287,-0.17174 6.34342,-0.74922 8.34729,-1.41179 6.2623,-2.07059 14.2974,-6.91807 20.08568,-12.11749 l 2.60853,-2.34315 4.69535,3.38049 c 20.79196,14.96943 36.5444,16.65824 48.02146,5.14832 11.45337,-11.4861 9.29299,-30.10547 -4.52168,-38.97024 -2.79237,-1.79191 -8.03672,-3.61177 -10.40798,-3.61177 -1.20879,0 -1.58191,-0.28522 -1.87688,-1.4347 -0.20253,-0.78907 -5.33622,-21.5009 -11.4082,-46.02631 l -11.03992,-44.59155 3.48719,-3.40539 c 4.03795,-3.9431 6.05131,-7.66046 6.88985,-12.72085 1.93224,-11.6606 -6.02064,-22.90759 -17.92456,-25.34885 l -2.95442,-0.60589 -0.63226,-2.7114 c -0.34771,-1.49127 -6.59243,-26.75676 -13.87711,-56.14555 -14.13046,-57.00669 -13.76897,-55.80866 -17.40656,-57.68974 -2.24652,-1.16172 -77.01751,-1.17888 -79.26199,-0.0182 -2.05855,1.0645 -4.08856,3.62252 -4.69149,5.91166 -0.28,1.06297 -5.70053,26.34363 -12.04562,56.17924 -6.34509,29.83562 -11.62835,54.33843 -11.74062,54.4507 -0.11222,0.11225 -1.33014,0.41119 -2.7063,0.66429 -6.50421,1.19619 -12.83657,6.0857 -15.87514,12.2578 -1.47528,2.99668 -1.74443,4.15565 -1.9252,8.28737 -0.14884,3.40268 0.0339,5.64284 0.62662,7.68161 1.19512,4.11094 4.59273,8.93265 7.92341,11.24428 1.53762,1.0672 2.80521,2.29253 2.81695,2.72293 0.0198,0.72799 -19.27286,91.94133 -19.50085,92.19738 -0.057,0.0639 -1.02937,-0.13999 -2.16095,-0.45335 -1.16476,-0.32247 -4.24257,-0.46499 -7.09379,-0.32852 -4.43758,0.21244 -5.51115,0.46661 -9.02995,2.13769 -5.37592,2.55303 -9.55906,6.73611 -12.11203,12.11202 -1.67723,3.53164 -1.92509,4.58507 -2.1428,9.10659 -0.20258,4.20647 -0.0501,5.7579 0.85878,8.75088 3.84304,12.65246 16.2887,19.97514 29.39306,17.29398 z m -13.93001,6.87545 c -4.64099,-1.36358 -6.81421,-2.40304 -10.45264,-4.99934 -4.52173,-3.22666 -7.77096,-7.07857 -10.12683,-12.00546 -4.73349,-9.89884 -4.72097,-19.23857 0.0386,-28.95466 1.69058,-3.45105 3.05219,-5.30352 6.13954,-8.35289 6.07625,-6.00149 12.37966,-8.87478 21.28523,-9.70247 3.56941,-0.33175 3.72002,-0.40146 4.01098,-1.85639 0.16621,-0.83149 3.94561,-18.62923 8.39847,-39.55064 4.45287,-20.92134 8.09615,-38.41915 8.09615,-38.88399 0,-0.46484 -0.69737,-1.43193 -1.54973,-2.14917 -2.48901,-2.09434 -6.68013,-8.81818 -7.84265,-12.58208 -4.68408,-15.16525 3.20792,-31.39113 17.8701,-36.7407 1.64989,-0.60198 2.99981,-1.21719 2.99981,-1.36714 0,-0.14996 5.06691,-24.12349 11.25976,-53.27452 7.09906,-33.41662 11.69936,-53.96579 12.44937,-55.61041 1.53804,-3.37258 4.51484,-6.31736 8.11492,-8.0276 l 2.86939,-1.36311 h 39.38879 c 39.26598,0 39.3964,0.004 41.82813,1.12735 3.19273,1.47555 6.89309,4.92704 8.21921,7.66643 0.58238,1.20308 7.0375,26.33052 14.34467,55.83874 7.30717,29.50823 13.35713,53.70017 13.44436,53.75986 0.0873,0.0597 1.52479,0.61839 3.19446,1.24155 19.05677,7.11228 25.31666,32.03244 11.84371,47.14876 l -2.50669,2.81241 10.21271,41.253 10.21275,41.25303 3.48766,1.12327 c 15.60626,5.02638 25.02221,22.58195 20.85368,38.88082 -1.53011,5.98251 -3.81033,9.88105 -8.60194,14.70668 -6.57391,6.62054 -13.7132,9.60623 -22.95328,9.59907 -9.62083,-0.008 -21.01734,-4.25085 -31.71565,-11.80906 -1.36364,-0.96338 -2.58187,-1.75164 -2.70729,-1.75164 -0.12542,0 -2.04222,1.30171 -4.25968,2.89266 -10.53652,7.55961 -19.07628,10.67169 -29.28376,10.67169 -9.69043,0 -16.69438,-2.87767 -23.37201,-9.60272 -4.79161,-4.82563 -7.07182,-8.72417 -8.60193,-14.70668 -3.21752,-12.58053 1.61087,-26.44001 11.91575,-34.20277 l 1.72962,-1.30297 -2.55276,-11.17677 -2.55276,-11.17676 -27.47945,-0.13506 c -15.11366,-0.0743 -27.47939,-0.068 -27.47939,0.0138 0,0.082 -0.93907,4.47962 -2.08683,9.77245 -1.14775,5.29281 -2.08682,9.66031 -2.08682,9.70564 0,0.0453 1.34991,0.75597 2.99981,1.57926 4.07332,2.03257 11.38393,9.33807 13.6027,13.59316 3.48823,6.68968 4.62101,15.41959 2.9312,22.58924 -1.42034,6.02648 -4.05772,10.66021 -8.76758,15.40425 -6.62238,6.67043 -13.72467,9.64556 -23.02622,9.64556 -7.14643,0 -12.95995,-1.81211 -19.28731,-6.01198 l -2.86307,-1.90043 -1.56929,1.11744 c -2.64004,1.87988 -10.10221,5.15989 -13.63181,5.99185 -4.51745,1.06485 -12.42374,0.97271 -16.38422,-0.19087 z M -66.304611,408.51959 c -0.12915,-0.50215 -3.61157,-15.63287 -7.73875,-33.62381 -4.12719,-17.99095 -7.55125,-32.66355 -7.60902,-32.60577 -0.11555,0.11557 -14.27636,66.4525 -14.27636,66.87827 0,0.14534 6.71824,0.26429 14.92946,0.26429 13.96018,0 14.91421,-0.0593 14.69467,-0.91298 z m -38.826079,7.82559 c 0.14257,-0.50215 5.376319,-25.02921 11.630699,-54.50463 6.25436,-29.47539 11.51567,-53.42169 11.69177,-53.21399 0.17609,0.20769 5.77545,24.20654 12.44296,53.33077 6.66753,29.12424 12.24759,53.48138 12.40017,54.12699 l 0.27739,1.17384 h -24.35102 c -22.942369,0 -24.336059,-0.0528 -24.091969,-0.91298 z m -68.93387,116.99531 c -5.6496,-1.58072 -9.22529,-4.49417 -11.70611,-9.53798 -1.56064,-3.17297 -1.71657,-3.92119 -1.70786,-8.19495 0.008,-4.06008 0.20604,-5.10574 1.44614,-7.64712 3.7123,-7.60762 13.01746,-11.91353 20.83457,-9.64102 1.6017,0.46562 3.62102,0.84657 4.48739,0.84657 2.11018,0 4.6373,-2.20378 5.27835,-4.60301 0.28191,-1.05509 5.098,-23.51693 10.70243,-49.91526 5.60441,-26.39832 10.30249,-48.48411 10.44016,-49.07958 0.21256,-0.91931 -0.16563,-1.21375 -2.50677,-1.95176 -5.96177,-1.87929 -10.25966,-7.92951 -10.25966,-14.44275 0,-2.84596 0.29364,-4.0729 1.60077,-6.68871 2.89277,-5.78894 7.81955,-8.67323 14.66225,-8.58375 9.55518,0.12495 18.57471,5.75145 22.43138,13.99295 2.75551,5.88842 2.64771,7.72404 -1.61769,27.54469 -2.02815,9.4244 -3.68754,17.4652 -3.68754,17.86842 0,0.62193 4.99286,0.73311 32.924039,0.73311 h 32.92402 l -0.36167,-1.43469 c -0.19891,-0.78909 -2.4729,-10.59064 -5.05325,-21.78122 -3.80992,-16.5229 -4.64158,-20.86563 -4.42554,-23.10871 0.85446,-8.87148 9.27379,-15.20373 18.05808,-13.58167 4.94609,0.91333 8.5367,3.20689 15.26808,9.7527 l 3.51313,3.4163 1.44307,-1.14818 c 3.60307,-2.86678 13.2042301,-9.04811 15.9181001,-10.24824 7.58914,-3.3561 14.4428899,-2.43874 19.4981799,2.60978 5.87435,5.86648 5.69788,15.74834 -0.38711,21.67534 -1.39927,1.3629 -3.50471,2.78554 -4.74685,3.20739 -1.6565899,0.56261 -2.2057399,1.01237 -2.1294499,1.74401 0.0566,0.54227 5.7496599,23.8237 12.6513799,51.7365 6.9017,27.91282 12.54856,50.80617 12.54856,50.87408 0,0.068 1.93682,0.12008 4.30407,0.11574 3.58075,-0.006 4.80163,0.22548 7.26483,1.38017 3.95212,1.85268 7.21188,4.95531 9.07105,8.63376 1.35008,2.67118 1.52718,3.56451 1.52969,7.71629 0.002,4.05787 -0.196,5.12034 -1.46178,7.82559 -2.99447,6.39986 -9.14385,10.31403 -16.27335,10.35815 -8.28374,0.0511 -19.98021,-5.634 -31.4583099,-15.29088 l -3.80788,-3.20369 -4.80028,4.52057 c -6.06445,5.71123 -12.7256301,10.11604 -18.5321501,12.25483 -3.78131,1.3928 -5.30192,1.67499 -9.22316,1.71135 -4.0784,0.0375 -5.10665,-0.14572 -7.82559,-1.3975 -12.31443,-5.66911 -14.71167,-20.83682 -4.73441,-29.95545 2.70136,-2.46888 4.95135,-3.56362 9.29935,-4.52462 0.78907,-0.17431 1.42877,-0.60605 1.42153,-0.9593 -0.008,-0.35318 -2.30703,-10.61979 -5.11061,-22.81467 l -5.09745,-22.1725 -39.23439,-0.13368 c -21.578909,-0.0736 -39.234399,-0.0456 -39.234399,0.0623 0,0.20731 -9.19189,43.61207 -9.64578,45.54794 -0.252,1.07493 -0.16721,1.10457 1.69045,0.59158 4.23685,-1.17005 11.21649,0.6698 15.14505,3.99229 9.77361,8.26575 7.65071,24.86513 -3.8461,30.07337 -5.55332,2.51578 -11.07661,2.37779 -16.5866,-0.41434 -3.05777,-1.54946 -7.63609,-5.74226 -9.85849,-9.02833 -0.8733,-1.29121 -1.65756,-2.43594 -1.74284,-2.54378 -0.0854,-0.10786 -1.74931,1.27619 -3.69782,3.07566 -9.16773,8.46662 -18.46738,12.16024 -25.59521,10.16586 z m 10.59572,6.77158 c 4.23555,-1.07668 10.03737,-3.98651 14.13996,-7.09174 l 3.40803,-2.57953 2.97418,2.75273 c 13.4218,12.42245 33.56139,9.2403 41.02817,-6.48261 4.787849,-10.08186 2.609259,-21.74659 -5.47364,-29.30719 -2.64545,-2.47451 -9.26292,-6.05654 -11.21609,-6.07131 -2.41892,-0.0177 -2.40961,-0.26596 0.52971,-14.08867 1.55469,-7.31108 3.08295,-14.52716 3.39617,-16.03567 l 0.56946,-2.74276 33.469139,0.13428 33.46917,0.13428 3.76817,16.1729 c 2.0725,8.89507 3.78028,16.4439 3.79505,16.77518 0.0138,0.33128 -1.31289,1.35847 -2.95035,2.28258 -5.67431,3.20238 -10.65481,9.84865 -12.10777,16.15737 -2.98034,12.9405 5.37669,26.58573 18.4074,30.05543 5.81861,1.5493 14.32902,0.51566 21.34805,-2.59292 3.92376,-1.73777 10.7845101,-6.2249 15.04879012,-9.84241 l 3.37962998,-2.86704 1.53603,1.24595 c 3.66073,2.96943 12.1382299,8.26882 16.6363899,10.39963 14.10124,6.67982 25.5324,5.67469 34.34251,-3.01964 6.86592,-6.7757 9.20161,-17.2896 5.88413,-26.48695 -2.83959,-7.87244 -10.55521,-14.32035 -19.0012,-15.87916 l -3.42611,-0.63231 -11.39427,-46.07239 -11.39427,-46.07237 1.20489,-0.81141 c 2.60384,-1.75345 5.83663,-5.63426 7.30197,-8.76565 6.19771,-13.24418 -1.50521,-28.52261 -15.8783499,-31.49398 -2.38416,-0.49288 -3.05377,-0.85315 -3.26566,-1.757 -4.10672,-17.51938 -27.5471301,-110.79923 -28.1224001,-111.91168 -0.44673,-0.86387 -1.57877,-2.11741 -2.51564,-2.78564 l -1.70343,-1.21497 -38.51764,-0.14029 -38.517629,-0.1403 -2.07077,1.16384 c -1.13893,0.64011 -2.50998,1.87708 -3.04679,2.74882 -0.63271,1.02747 -5.16137,21.26222 -12.87456,57.52557 l -11.89854,55.94057 -2.88126,0.59555 c -11.712,2.42082 -19.7663,13.89436 -17.77617,25.32257 0.33138,1.90297 1.32147,4.88416 2.20016,6.62488 1.63524,3.23932 6.33804,8.34729 8.24146,8.95143 0.58421,0.18541 1.0613,0.61478 1.0602,0.95409 -0.002,0.70472 -19.18843,91.06749 -19.53633,92.01204 -0.16939,0.46014 -0.73125,0.47913 -2.19738,0.0743 -1.08333,-0.29909 -4.20995,-0.45383 -6.94808,-0.34384 -4.429,0.17785 -5.42273,0.41094 -9.00508,2.11223 -13.12715,6.23401 -18.29678,20.59949 -12.12664,33.69776 5.035,10.6885 17.13847,16.33627 28.70723,13.39557 z m -14.36771,7.30221 c -17.01949,-4.64895 -27.70879,-22.29206 -23.54501,-38.8618 1.74112,-6.92874 3.79108,-10.59059 8.67768,-15.50087 3.43533,-3.45197 5.13509,-4.7046 8.71457,-6.42216 4.30684,-2.06659 10.34824,-3.57472 14.50005,-3.61975 l 1.82596,-0.0197 8.52707,-40.16359 8.5271,-40.16359 -2.87605,-3.17812 c -8.82555,-9.75257 -10.61496,-22.71671 -4.69143,-33.98917 3.38709,-6.44564 8.91667,-11.38213 15.69284,-14.00965 l 3.02769,-1.17401 11.14923,-52.47786 c 6.13207,-28.86283 11.46968,-53.57768 11.86133,-54.92189 1.12427,-3.85847 4.23715,-7.35443 8.35313,-9.38105 l 3.53242,-1.73928 37.835209,-0.15767 c 42.45147,-0.17691 41.85061,-0.22139 46.72044,3.45925 5.00426,3.78221 4.33396,1.63544 19.02225012,60.92369 l 13.37811988,53.99978 4.03376,1.75355 c 9.32715,4.05468 15.09582,10.7793 17.58034,20.49376 1.28258,5.01481 1.27672,8.82719 -0.0213,13.9025 -1.24861,4.88196 -3.44221,9.12964 -6.54885,12.68095 l -2.3217,2.65407 10.1942,41.15817 10.19419,41.15816 3.6227,1.2333 c 4.82281,1.64192 9.03123,4.47098 13.15704,8.84454 3.95455,4.19201 6.18523,8.40766 7.75553,14.6567 4.22297,16.80525 -6.76369,34.5853 -24.05324,38.92614 -5.41833,1.36035 -14.09824,0.82043 -20.20947,-1.25716 -5.94074,-2.01956 -10.9699,-4.51886 -17.2197599,-8.55754 l -4.80916,-3.1077 -4.32069998,3.10447 c -5.91124002,4.24732 -10.21190012,6.52838 -16.05906012,8.51759 -4.27382,1.45393 -5.8541,1.71692 -11.47752,1.91012 -7.76115,0.26653 -11.23312,-0.46197 -17.35543,-3.64166 -5.92506,-3.07735 -10.72453,-8.05578 -13.68101,-14.19124 -2.81287,-5.83754 -3.58846,-9.6861 -3.28902,-16.32095 0.44657,-9.89525 5.11797,-18.62939 13.06133,-24.42085 l 1.43007,-1.04266 -2.33315,-10.17328 c -1.28323,-5.59528 -2.45999,-10.70357 -2.61501,-11.35168 l -0.28187,-1.17849 -27.46147,0.13507 -27.461509,0.13507 -1.99836,9.3907 c -1.0991,5.1649 -2.00082,9.55303 -2.0038,9.75143 -0.004,0.19834 1.4556,1.13741 3.24128,2.08682 9.440379,5.01902 16.184259,15.65535 16.919229,26.68469 1.0111,15.17307 -9.633439,29.66538 -24.579619,33.46465 -4.00721,1.01859 -11.72269,1.01258 -15.69282,-0.0118 -3.76251,-0.97125 -8.77376,-3.25287 -11.96167,-5.44623 l -2.35229,-1.61844 -3.43635,2.07259 c -1.89,1.13988 -5.47292,2.82707 -7.96208,3.74924 -3.97862,1.47402 -5.28254,1.69851 -10.78619,1.857 -4.4401,0.12798 -7.09482,-0.0475 -9.12985,-0.60351 z m 356.84539,-54.84761 c 1.39008,-0.27801 1.88121,-0.76965 2.73619,-2.73895 1.9676,-4.53205 6.63099,-10.89468 10.87476,-14.8372 4.74005,-4.40363 4.98531,-4.93217 6.81754,-14.69162 0.95911,-5.1089 1.10413,-8.34411 1.32121,-29.47639 l 0.24391,-23.73761 -3.5618,-1.81538 c -6.52529,-3.32588 -11.92688,-9.90287 -14.57656,-17.74859 -1.34454,-3.98115 -1.34454,-12.71348 0,-16.6946 2.6538,-7.85791 8.05581,-14.43005 14.58847,-17.74857 l 3.57367,-1.8154 -0.25578,-15.91203 c -0.28773,-17.89831 -1.0417,-23.93754 -4.14382,-33.19292 -3.20289,-9.55608 -8.48048,-16.92974 -14.13342,-19.7467 -3.74544,-1.86643 -8.97669,-1.85776 -12.74711,0.0211 -4.02591,2.00619 -7.98799,6.62341 -11.06429,12.8937 -5.3076,10.81838 -6.72242,18.8518 -7.14092,40.54651 l -0.29688,15.39032 3.31857,1.55181 c 4.49637,2.10258 10.55572,8.15576 12.80804,12.7951 4.3879,9.03805 4.41145,18.12104 0.0704,27.12871 -2.20619,4.57786 -8.37473,10.72439 -12.86929,12.82337 l -3.26239,1.52354 0.23112,22.95505 c 0.24395,24.23028 0.58065,28.38676 3.04105,37.53977 4.65579,17.32032 14.1585,27.04075 24.42735,24.98694 z m 210.50975,107.99212 c -15.89314,-1.70884 -31.10843,-6.01255 -44.86675,-12.69081 -17.12015,-8.31014 -41.69872,-27.14727 -70.87022,-54.31541 -23.2985,-21.69849 -26.33535,-24.19599 -34.69861,-28.5367 -10.42943,-5.41304 -17.42373,-7.10061 -29.55297,-7.13025 -4.73989,-0.0118 -9.89556,0.27187 -11.92985,0.6559 -1.97043,0.37196 -3.70275,0.55607 -3.84967,0.40921 -0.1469,-0.1469 0.5886,-2.06887 1.63441,-4.27098 2.35388,-4.95668 8.23988,-11.07405 13.4299,-13.95789 9.70389,-5.39194 20.80831,-7.0939 34.53959,-5.2939 8.04001,1.05395 14.0835,2.85998 20.95474,6.26209 9.58087,4.74366 13.10347,7.79434 38.86709,33.66 13.05569,13.10739 26.10796,25.85542 29.00515,28.32903 24.16943,20.63603 46.16502,31.59416 70.4751,35.1104 8.08472,1.16939 24.81531,1.15421 34.85903,-0.0317 14.15498,-1.67125 29.26227,-5.27418 40.83089,-9.73781 3.08047,-1.1886 6.24649,-2.27615 7.03562,-2.4168 2.26942,-0.40447 1.82321,1.35414 -1.04341,4.11198 -15.62905,15.03599 -36.55567,24.97062 -60.90916,28.9157 -5.06143,0.81991 -28.85873,1.471 -33.91088,0.92781 z m 33.84249,6.06635 c 8.89769,-1.32126 19.38554,-3.96699 25.92455,-6.53984 17.21557,-6.77372 32.43409,-17.31401 42.37207,-29.34663 5.52069,-6.68435 6.71592,-9.4735 4.7566,-11.09961 -1.44993,-1.20331 -4.64673,-0.62443 -14.52795,2.63095 -20.94096,6.89894 -37.09657,9.75029 -58.19602,10.27116 -9.68161,0.23898 -13.59816,0.1254 -18.62229,-0.54024 -24.23496,-3.21078 -46.46214,-14.49293 -70.79946,-35.93687 -2.6104,-2.30005 -14.72384,-14.2205 -26.91868,-26.48993 -25.43963,-25.59515 -29.40962,-28.99574 -40.16337,-34.40258 -9.46275,-4.7578 -18.04816,-6.73205 -31.04949,-7.13991 -7.52623,-0.23613 -10.30495,-0.12186 -13.99549,0.57554 -12.46573,2.35566 -23.5907,8.97433 -29.79791,17.72783 -2.43131,3.42864 -4.9896,8.28259 -5.98438,11.3543 l -0.62001,1.91434 -3.96715,0.37177 c -10.33692,0.96864 -16.16,-1.10528 -22.73876,-8.09859 -6.55182,-6.96462 -11.09369,-17.35387 -13.55793,-31.01287 -1.06988,-5.93033 -1.1379,-7.87593 -1.14794,-32.83853 l -0.01,-26.53469 2.99359,-0.92691 c 13.1923,-4.08474 19.65096,-18.89321 13.62844,-31.24733 -2.69326,-5.52473 -9.671,-11.02072 -15.11327,-11.90387 l -1.76963,-0.28717 v -15.78849 c 0,-16.09533 0.44119,-23.33902 1.87398,-30.76766 5.43425,-28.17523 22.13571,-43.01756 39.47397,-35.07986 1.54075,0.7054 4.37107,2.75088 6.28954,4.5455 6.15295,5.7558 10.44934,13.54434 13.24627,24.01304 2.62241,9.81558 2.847,12.20139 3.12465,33.19114 l 0.2631,19.88766 -1.97502,0.37051 c -3.18868,0.59821 -7.97501,3.30288 -10.74261,6.07047 -10.7725,10.77251 -7.46786,29.0318 6.46258,35.70782 2.07696,0.99531 4.32923,1.80968 5.00509,1.80968 h 1.22882 l -0.23111,27.51999 c -0.18949,22.57585 -0.38241,28.26985 -1.07341,31.69364 -0.46328,2.29552 -0.84693,4.45657 -0.85257,4.8024 -0.006,0.42019 1.15776,0.1893 3.51125,-0.6963 1.93681,-0.72884 3.62657,-1.42985 3.75502,-1.55792 0.12836,-0.12797 0.55431,-2.27976 0.94638,-4.7816 0.50954,-3.25152 0.79351,-12.89474 0.99572,-33.81443 l 0.28291,-29.26561 -3.5769,-0.31339 c -7.00887,-0.6141 -11.13546,-3.04639 -14.02774,-8.2682 -1.37609,-2.48452 -1.54847,-3.28931 -1.54847,-7.23022 0,-3.99352 0.1607,-4.71984 1.61666,-7.30388 0.93473,-1.65905 2.67349,-3.67532 4.12209,-4.78007 7.43839,-5.67257 16.68078,-3.77787 29.78566,6.10608 2.41107,1.81848 4.62455,3.45515 4.91884,3.63704 0.29431,0.18188 1.64474,-0.59524 3.00096,-1.72694 4.20517,-3.50898 11.58818,-8.04014 15.70544,-9.63889 7.25363,-2.81659 13.29285,-1.82633 18.08456,2.9654 4.44062,4.44062 4.41343,4.25404 4.40826,30.26772 -0.006,23.60228 -0.35262,30.29885 -2.1299,40.99141 -1.13499,6.8279 -4.37409,20.10558 -6.12046,25.08844 l -1.02192,2.91592 3.2614,1.60826 3.26144,1.60832 1.88764,-6.08936 c 3.33939,-10.77248 5.72097,-22.15765 7.16693,-34.26142 0.83139,-6.95951 1.23697,-66.24884 0.53527,-78.25588 -2.89051,-49.46255 -22.63952,-89.24453 -54.70999,-110.20671 -30.98813,-20.25475 -73.30177,-21.01766 -105.12757,-1.89543 -31.552811,18.95818 -52.434781,56.88254 -57.273311,104.01569 -0.86091,8.38635 -1.24435,59.71321 -0.55342,74.08224 0.93289,19.40146 3.3601,33.24265 8.64552,49.30122 11.92668,36.23665 34.959871,62.24217 65.100981,73.50198 21.66728,8.09423 48.73758,8.08932 69.96838,-0.0118 9.31631,-3.55522 19.86588,-9.68719 27.81268,-16.16625 l 1.99885,-1.62966 -1.30427,-1.08238 c -0.71734,-0.59533 -2.042,-1.48644 -2.94372,-1.98028 l -1.63941,-0.89786 -3.83849,2.87564 c -17.71589,13.27194 -39.8176,19.58515 -62.09777,17.7377 -16.93843,-1.4045 -30.69896,-6.09203 -44.23745,-15.06944 -7.38434,-4.89658 -19.33664,-16.5822 -24.55008,-24.00239 -11.918571,-16.96337 -19.756251,-36.91721 -23.741771,-60.44374 -1.89882,-11.20886 -2.42396,-21.72415 -2.23863,-44.82607 l 0.16741,-20.86824 1.61664,-2.86938 c 0.93473,-1.65906 2.67346,-3.67532 4.12211,-4.78006 7.43835,-5.67258 16.68075,-3.77788 29.785641,6.10607 2.41108,1.81849 4.58645,3.43159 4.83415,3.58467 0.24768,0.15307 2.11507,-0.98289 4.14975,-2.52436 15.29405,-11.58681 25.2,-13.34961 32.72592,-5.8237 3.09027,3.0901 4.41275,6.30923 4.41275,10.74111 0,8.47699 -5.97185,14.63051 -14.99904,15.45538 l -3.78237,0.34563 v 28.3786 c 0,16.3645 0.23309,30.52336 0.55061,33.4447 2.97876,27.40682 16.06387,46.94389 33.47713,49.98381 4.29135,0.74917 11.12366,0.44147 19.68146,-0.88644 6.04339,-0.93777 18.2368,-1.42326 23.74112,-0.94532 9.39749,0.81599 18.84313,4.23712 26.97949,9.77175 4.91249,3.34164 7.33185,5.43295 19.99703,17.28563 50.63364,47.38539 76.0031,64.48525 106.74754,71.95138 7.11507,1.72783 15.2986,3.08433 22.58772,3.74407 7.60204,0.68808 24.14909,0.13645 32.32516,-1.07768 z m -32.53822,8.57371 c -1.00429,-0.11515 -4.05632,-0.46499 -6.78223,-0.77738 -15.39408,-1.76415 -32.9246,-7.00449 -46.90986,-14.02263 -19.77226,-9.92222 -44.51421,-29.22758 -79.52339,-62.04956 -5.69458,-5.33881 -10.52782,-9.77243 -10.74052,-9.85252 -0.21274,-0.0801 -2.0097,1.18476 -3.99318,2.8108 -24.10648,19.76181 -56.87029,27.66706 -88.30398,21.30601 -21.14576,-4.27914 -38.72794,-13.76272 -54.07619,-29.1679 -21.183461,-21.26198 -34.317101,-50.66986 -39.501831,-88.44951 -1.13988,-8.30588 -1.18153,-9.98206 -1.1863,-47.73609 -0.004,-34.48629 0.10608,-40.02533 0.93075,-46.69267 7.31351,-59.12819 36.72506,-101.41071 80.711291,-116.03185 12.1037,-4.0233 21.57082,-5.51429 35.05802,-5.52134 56.17874,-0.0294 99.26105,40.09673 112.30381,104.59774 3.63858,17.99432 3.67203,18.56408 3.67203,62.60471 0,42.22839 -0.10845,44.60288 -2.67885,58.69192 -1.60661,8.80577 -3.32823,15.65525 -6.01205,23.91854 l -2.09204,6.4414 1.19351,0.83599 c 4.53734,3.17807 12.70099,10.91398 28.23482,26.75553 9.83069,10.02547 20.86649,20.96152 24.52391,24.30242 14.21936,12.98879 25.9148,21.31746 38.73849,27.58697 18.03777,8.81854 32.5823,11.5359 54.87396,10.25182 18.58212,-1.07033 30.40538,-3.1043 49.20641,-8.46488 18.0636,-5.15032 22.20714,-5.59633 25.58529,-2.75378 1.27682,1.07442 1.54336,1.69273 1.54336,3.58042 0,6.03817 -4.67886,13.42329 -15.05288,23.75954 -19.2871,19.21686 -38.30844,28.70421 -66.33323,33.08528 -5.22082,0.81614 -28.80849,1.51629 -33.38912,0.99102 z"
     style="fill:#263d8a;fill-opacity:1;stroke-width:0.52170581"
     id="path836" /><g
     transform="matrix(1.9718017,0,0,1.9718017,-818.6777,696.44975)"
     id="g947"><path
       inkscape:connector-curvature="0"
       d="m 669.8872,-169.10955 c -1.48291,-1.28796 -4.94879,-2.93448 -7.14375,-3.39374 -1.01865,-0.21313 -2.71529,-0.38958 -3.77031,-0.39211 l -1.91823,-0.005 -0.005,-8.79739 c -0.009,-15.28602 -0.26804,-25.28903 -0.69979,-27.05364 -0.72562,-2.9657 -2.11701,-5.34701 -4.57967,-7.83792 -1.85031,-1.87155 -2.66002,-2.47515 -4.50475,-3.35811 -1.23692,-0.59205 -2.84427,-1.21959 -3.57187,-1.39454 -2.04063,-0.49067 -2.00904,-0.42205 -1.92585,-4.18304 l 0.0737,-3.33472 h 23.15104 23.15104 l 0.0745,3.27009 c 0.0827,3.62779 -0.0471,4.00595 -1.37424,4.00595 -2.63459,0 -7.35669,2.08492 -9.86497,4.3556 -2.02374,1.83202 -3.8953,4.60102 -4.80372,7.10717 -0.64217,1.77155 -0.69781,2.29732 -0.83105,7.85181 -0.0785,3.27422 -0.17677,12.25974 -0.21831,19.96783 -0.0415,7.70809 -0.0991,14.03627 -0.12785,14.06263 -0.0288,0.0264 -0.52856,-0.36571 -1.11064,-0.87127 z m -61.78021,0.66521 c -2.2561,-1.63615 -4.63309,-2.88658 -7.11041,-3.74048 -2.04203,-0.70385 -2.50288,-0.76816 -4.65558,-0.64964 -2.5595,0.14092 -4.39942,0.78075 -6.22568,2.165 l -0.92604,0.70191 -0.13441,-19.12716 c -0.13279,-18.89547 -0.14144,-19.14566 -0.71564,-20.6552 -1.76361,-4.63636 -4.70429,-8.05364 -8.5516,-9.93755 -2.33971,-1.14567 -4.80568,-1.89586 -6.23197,-1.89586 -1.32717,0 -1.4569,-0.37816 -1.37424,-4.00595 l 0.0745,-3.27009 h 32.54375 32.54375 l 0.0738,3.33472 c 0.0832,3.76099 0.11478,3.69237 -1.92585,4.18304 -0.7276,0.17495 -2.33495,0.80368 -3.57187,1.39717 -3.04144,1.45933 -6.31749,4.68702 -7.73573,7.62153 -1.93114,3.99577 -1.86484,3.25232 -1.98393,22.24042 l -0.10713,17.08106 -1.40605,0.29492 c -2.2458,0.47106 -5.2086,1.82926 -7.98848,3.66204 -1.41874,0.9354 -2.70473,1.69054 -2.85776,1.67808 -0.15301,-0.0125 -0.93305,-0.49753 -1.73342,-1.07796 z m 116.48577,1.93142 c -1.81448,-2.57295 -5.1167,-4.74373 -8.75493,-5.75525 -0.8981,-0.24969 -1.63293,-0.54126 -1.63293,-0.64792 0,-0.10665 1.00034,-4.93893 2.22295,-10.73839 1.22262,-5.79946 2.78178,-13.22337 3.46483,-16.49759 3.84267,-18.42027 5.97701,-28.15178 6.24517,-28.47489 0.42651,-0.51389 37.06879,-0.54711 37.47942,-0.034 0.23881,0.2984 2.08931,7.7107 11.04069,44.2239 1.5303,6.24218 2.78236,11.51069 2.78236,11.70781 0,0.19712 -0.1864,0.3584 -0.41421,0.3584 -0.98906,0 -4.35038,1.7964 -8.73326,4.66731 -0.50294,0.32946 -0.70061,0.22752 -2.38125,-1.22806 -6.05403,-5.24342 -13.02522,-5.32477 -17.74256,-0.20705 l -1.08106,1.1728 -3.22847,-13.91031 c -4.77102,-20.55648 -5.79594,-24.91772 -5.95048,-25.32047 -0.0947,-0.2468 -0.60108,-0.3638 -1.57443,-0.3638 -1.26749,0 -1.45219,0.0694 -1.58364,0.59531 -0.17126,0.68525 -1.26227,5.73529 -5.80263,26.85913 l -3.25662,15.15133 z m -362.39196,0.53855 c -1.20031,-2.32116 -6.1691,-5.66319 -9.54202,-6.41801 -1.39802,-0.31287 -1.39981,-0.31459 -1.18311,-1.13808 0.11937,-0.45361 1.11343,-5.11099 2.20902,-10.34974 7.63223,-36.49465 9.33793,-44.50305 9.55272,-44.85058 0.10349,-0.16745 6.83263,-0.26087 18.78943,-0.26087 17.47287,0 18.64316,0.0287 18.8694,0.46302 0.21856,0.41956 3.10001,12.01724 11.02051,44.35691 1.5289,6.24258 2.77982,11.45157 2.77982,11.57552 0,0.12396 -0.21465,0.22538 -0.47701,0.22538 -0.75173,0 -4.73327,2.01695 -7.14188,3.61789 l -2.19494,1.45893 -1.29407,-1.21046 c -1.69455,-1.58506 -4.19548,-3.187 -5.90828,-3.7845 -0.99176,-0.34597 -2.14283,-0.47754 -4.15048,-0.47444 -2.58799,0.004 -2.89836,0.0628 -4.53491,0.8595 -1.04435,0.50839 -2.35299,1.45141 -3.227,2.32542 l -1.47024,1.47024 -0.26276,-1.00681 c -0.14452,-0.55375 -1.64148,-6.95994 -3.32656,-14.23598 -1.68509,-7.27604 -3.63386,-15.66995 -4.33062,-18.65312 l -1.26681,-5.42396 -1.48436,-0.0787 c -1.23901,-0.0657 -1.50866,-9e-5 -1.63138,0.39687 -0.17961,0.58104 -1.80102,8.07116 -5.90167,27.26294 -1.71768,8.03909 -3.20931,14.61729 -3.31471,14.61822 -0.1054,0.001 -0.36554,-0.33458 -0.57809,-0.74559 z m 109.51348,-2.47715 c -2.49648,-1.76719 -6.62147,-3.80082 -8.50096,-4.19101 -3.33759,-0.69288 -7.01197,0.0829 -9.54569,2.0155 l -0.87106,0.66439 0.004,-1.27024 c 0.0193,-6.24144 1.12245,-14.4044 2.90705,-21.51086 5.12731,-20.41752 17.76327,-35.35563 34.32294,-40.57625 9.08926,-2.86549 20.15274,-2.81408 29.40924,0.13666 21.23607,6.76953 35.40136,29.56575 36.70662,59.07208 l 0.18635,4.21271 -0.91308,-0.69644 c -2.57511,-1.96414 -6.22792,-2.74503 -9.58268,-2.04859 -1.88306,0.39092 -5.43197,2.14596 -8.21264,4.06136 l -2.0879,1.43822 -2.14543,-1.46245 c -2.54341,-1.73373 -6.50579,-3.71498 -7.86418,-3.93219 l -0.96788,-0.15477 -0.12808,-9.82673 c -0.11234,-8.61712 -0.20029,-10.23101 -0.71464,-13.11105 -1.53083,-8.57189 -4.2682,-14.41886 -8.70426,-18.59198 -3.48163,-3.27526 -6.95434,-4.6237 -11.28306,-4.38118 -8.77411,0.4916 -15.65057,8.7593 -18.09795,21.75956 -0.75935,4.03357 -1.07929,9.12845 -1.08201,17.23025 l -0.002,6.91149 -0.99218,0.16042 c -1.37866,0.22291 -4.4759,1.75521 -7.18048,3.5524 -1.25311,0.83269 -2.39744,1.58953 -2.54296,1.68186 -0.14552,0.0923 -1.09802,-0.42209 -2.11667,-1.14316 z"
       style="fill:url(#linearGradient907);fill-opacity:1;stroke-width:0.26458332"
       id="path832" /></g><g
     transform="matrix(1.9718017,0,0,1.9718017,738.95118,94.602262)"
     id="g998"><path
       style="fill:url(#linearGradient1040);fill-opacity:1;stroke:none;stroke-width:0.26458332px;stroke-linecap:butt;stroke-linejoin:miter;stroke-opacity:1"
       d="m -179.96521,300.12305 c 8.09702,3.07701 16.2906,0.53208 21.92392,-3.35929 l 6.89806,-3.3073 4.34099,-1.40358 c 2.98454,-1.09123 6.05819,-2.91306 9.10154,-3.37268 2.42064,-0.43939 6.92877,-0.58269 10.59457,0.18789 2.54005,0.5709 5.24529,1.93328 9.17756,3.83243 7.99067,3.66032 18.805259,9.17989 27.010742,12.68677 7.273802,2.41296 15.287208,4.07431 21.895472,5.31027 -8.808457,10.70585 -15.851268,18.01886 -27.194674,28.13013 -25.6118,-9.08486 -35.06052,-17.13423 -53.01882,-24.3494 -4.71942,-1.89614 -11.41831,-5.39763 -22.17365,-10.19046 z"
       id="path958"
       inkscape:connector-curvature="0"
       sodipodi:nodetypes="ccccccccccscc" /><path
       style="fill:url(#linearGradient1000);fill-opacity:1;stroke:none;stroke-width:0.26458332px;stroke-linecap:butt;stroke-linejoin:miter;stroke-opacity:1"
       d="m -96.21703,338.82769 c -30.30817,-15.1215 -54.00817,-24.78696 -81.62077,-37.70775 l -9.49665,-5.72633 -1.37016,-1.41743 c -5.22245,-3.37941 -11.62609,-6.51677 -17.67039,-9.73288 l -2.36235,-1.22843 -3.2128,-1.13393 -8.88244,-1.70087 -16.91443,-9.92188 c -3.03974,-2.31228 -6.54811,-3.18494 -10.12925,-4.30061 -4.43423,-1.00149 -8.65787,-1.04927 -12.68066,-0.18655 -10.13003,2.13163 -8.65989,1.82331 -13.12706,4.63565 -6.33329,3.92913 -13.93644,8.14869 -18.66672,11.89583 -3.16386,2.30951 -4.8721,2.87032 -7.82638,3.97329 l -16.37797,12.1416 -1.32292,1.60642 -1.03942,0.66146 -15.02457,7.65399 -2.55133,1.60642 -4.70571,1.6827 c -5.8021,2.54222 -9.15997,3.46597 -15.87307,6.08499 -14.63066,5.82447 -18.79756,7.06315 -20.14816,7.30408 -1.27674,0.22775 0.0776,-0.2039 -2.74031,1.03944 -10.01776,4.42016 -24.88332,6.17369 -31.09997,6.55676 -1.64614,0.10144 -2.68585,0.10678 -2.86854,0.0401 -0.23767,-0.0867 -7.18683,2.20072 -9.62631,3.56805 -1.55219,0.87001 -2.7232,1.99784 -3.98772,3.21147 24.29446,-4.41845 46.90618,-2.40256 70.61309,1.21472 8.0563,1.21606 21.99186,5.0671 38.79681,11.161 19.29886,6.99825 42.30565,16.65267 65.26712,24.18802 19.70552,6.46683 44.05657,6.82421 50.81092,6.61373 40.62332,-2.80004 40.89437,-8.05291 58.33096,-13.18072 14.12549,-6.50473 23.84108,-12.72393 36.28184,-21.64882 l 7.617191,-6.01358 z"
       id="path960"
       inkscape:connector-curvature="0"
       sodipodi:nodetypes="cccccccccccccccccccccsssssccssccccc" /><path
       style="fill:#91cc78;fill-opacity:1;stroke:none;stroke-width:0.26458332px;stroke-linecap:butt;stroke-linejoin:miter;stroke-opacity:1"
       d="m -117.33132,297.53454 c 6.00749,3.11137 12.10091,6.00593 18.307961,8.68624 -2.848921,0.74251 -5.890671,0.96591 -8.683461,0.91699 -4.42764,-0.0815 -5.0031,-0.59437 -9.2236,-4.12421 l -8.41899,-7.08264 c -1.1744,-2.12833 0.0409,-2.13299 1.87459,-1.43727 2.14883,0.81529 5.14686,2.5924 6.1435,3.04089 z"
       id="path978"
       inkscape:connector-curvature="0"
       sodipodi:nodetypes="cccccsc" /><path
       style="fill:url(#linearGradient1002);fill-opacity:1;stroke:none;stroke-width:0.26458332px;stroke-linecap:butt;stroke-linejoin:miter;stroke-opacity:1"
       d="m -111.87253,330.896 c -1.53733,-3.8805 -3.31141,-7.3145 -5.76419,-12.49676 -1.46028,-2.37772 -2.12688,-3.61414 -4.35246,-3.69849 -2.89773,-0.0866 -4.4819,-0.67556 -4.64426,-3.01756 -0.0479,-2.4413 0.0226,-4.29201 -0.29277,-5.26665 -0.69663,-2.1532 -3.4076,-4.31651 -6.36129,-8.41622 -7.89273,4.97464 -22.54532,11.06201 -21.29343,12.90715 8.19216,3.67612 16.03601,7.5031 23.98078,11.31045 6.1145,2.93024 12.28877,5.84884 18.72762,8.67808 z"
       id="path980"
       inkscape:connector-curvature="0"
       sodipodi:nodetypes="ccccsccsc" /><path
       style="fill:#47b765;fill-opacity:1;stroke:none;stroke-width:0.26458332px;stroke-linecap:butt;stroke-linejoin:miter;stroke-opacity:1"
       d="m -160.62898,302.81311 c 11.00914,2.18122 11.54481,-1.20913 19.04295,-8.15171 l 1.67043,-1.5368 c -1.45689,-0.42813 -2.77107,0.52963 -3.85786,1.20995 -5.13993,3.19068 -9.12133,4.76298 -16.85552,8.47856 z"
       id="path984"
       inkscape:connector-curvature="0"
       sodipodi:nodetypes="ccccc" /><path
       style="fill:#46b665;fill-opacity:1;stroke:none;stroke-width:0.26458332px;stroke-linecap:butt;stroke-linejoin:miter;stroke-opacity:1"
       d="m -137.77744,297.20045 c -0.67852,0.0407 -1.44437,0.64762 -2.27742,1.46276 -2.20191,2.66259 -5.18971,4.52163 -7.54473,6.62214 l 1.60361,0.26728 c 2.43384,0.11629 4.51891,-1.70663 5.67948,-3.07361 1.06472,-1.65324 1.76797,-3.47936 2.53906,-5.27857 z"
       id="path986"
       inkscape:connector-curvature="0"
       sodipodi:nodetypes="cccccc" /><path
       style="fill:#00a896;fill-opacity:1;stroke:none;stroke-width:0.26458332px;stroke-linecap:butt;stroke-linejoin:miter;stroke-opacity:1"
       d="m -96.21703,338.82769 -11.53649,9.05611 c -5.89715,-3.77385 -10.20713,-6.68187 -17.10193,-10.14245 -4.99603,-2.50758 -9.70744,-5.39204 -14.64313,-8.25199 l -8.8199,-11.42579 -7.34991,-6.81537 8.31361,3.5461 c 25.84044,11.30098 36.70767,16.38593 51.13775,24.03339 z"
       id="path988"
       inkscape:connector-curvature="0"
       sodipodi:nodetypes="ccsccccc" /><path
       style="fill:#05a777;fill-opacity:1;stroke:none;stroke-width:0.26458332px;stroke-linecap:butt;stroke-linejoin:miter;stroke-opacity:1"
       d="m -201.55916,307.25596 c 9.25696,4.5409 17.99524,8.80575 22.58744,11.0997 3.75077,-0.45159 4.6732,-0.89556 5.85986,-0.72616 0.74185,0.1059 1.83118,0.57362 3.02589,1.05232 3.50726,1.25578 9.06545,2.7785 12.42412,4.03717 3.48201,1.2235 2.74898,2.18691 0.3965,3.15253 -0.57061,0.22486 -1.51156,0.58391 -3.18554,1.17758 l 16.19762,10.26645 c -1.91487,0.11522 -4.06393,0.41919 -5.59807,0.59787 -1.96376,0.25073 -19.25605,-3.3734 -25.79662,-6.02617 -1.53798,-0.65533 -3.00703,-1.41886 -2.02846,-1.90278 1.47034,-0.61311 0.62378,-1.87804 -0.66788,-3.04061 -1.34123,-1.20719 -3.16239,-2.30401 -3.36775,-2.44608 -6.75811,-4.72672 -17.43094,-8.91378 -19.84711,-17.24182 z"
       id="path990"
       inkscape:connector-curvature="0"
       sodipodi:nodetypes="ccsccccccccscc" /><path
       style="fill:url(#linearGradient1050);fill-opacity:1;stroke:none;stroke-width:0.26458332px;stroke-linecap:butt;stroke-linejoin:miter;stroke-opacity:1"
       d="m -226.77819,279.22656 c 4.33946,3.3383 9.39878,4.04244 14.69982,4.61042 l 0.26727,0.33409 -2.87314,0.93543 c -2.89234,1.66396 -2.8921,3.12269 -0.33409,6.21401 3.09857,2.92836 7.10745,5.07425 9.52147,8.21854 1.87598,3.23625 0.77254,3.25075 -2.13814,2.03793 l -2.47224,-1.20269 -9.18741,-4.24292 c -3.8354,-1.90601 -6.82333,-3.0697 -10.0226,-4.07586 -1.54661,-0.11962 0.34191,2.48176 2.27792,4.78134 1.09851,1.50346 2.79083,2.7022 3.52907,4.4054 0.92961,2.16944 -1.73226,0.75726 -3.30134,-0.23321 -7.6351,-6.67783 -12.59792,-6.99793 -12.07153,-14.7214 -0.2267,-2.74341 -0.28912,-5.17564 -4.13169,-9.06559 -1.53861,-1.60029 -2.33482,-3.68498 -2.90023,-5.68122 -0.49663,-1.7952 -0.33428,-3.17625 2.54083,-1.81952 6.60417,3.79835 12.49943,6.98407 16.59603,9.50525 z"
       id="path994"
       inkscape:connector-curvature="0"
       sodipodi:nodetypes="cccccccccccccccccc" /><path
       style="fill:url(#linearGradient1004);fill-opacity:1;stroke:none;stroke-width:0.26458332px;stroke-linecap:butt;stroke-linejoin:miter;stroke-opacity:1"
       d="m -295.33283,331.34417 c 5.56863,-2.14462 10.61037,-4.28028 15.34601,-7.09743 4.25412,-2.82958 6.04762,-5.97724 8.18087,-9.49969 1.77901,-2.97821 2.87201,-4.57204 3.99144,-4.69181 1.46525,-0.61827 2.41112,-1.71496 3.08462,-2.95538 2.55747,-4.7552 3.61276,-13.63388 4.14872,-19.99306 -5.38091,2.41033 -11.00715,3.96773 -16.66435,5.54648 l -3.77979,0.75596 -5.08672,3.85803 -13.98103,6.51707 c -9.34218,2.97635 -20.44264,5.76801 -22.52665,8.64031 -1.84217,1.08859 -4.59782,3.77568 -6.34193,5.25415 -3.7038,3.10576 -5.93058,5.26762 -7.80824,5.86711 -3.68065,0.79813 -5.86904,2.37378 -8.94324,4.72462 l -4.27633,3.34085 c 7.48775,-0.19178 9.79362,-1.30942 12.88873,-2.52092 2.17444,-0.85113 4.07638,-3.27281 5.46424,-4.63391 3.5797,-3.51067 4.48453,-3.41164 12.24939,-6.60953 10.77007,-1.75193 10.69379,-4.59692 17.50616,-9.08715 l 5.26284,-2.98903 c 0.80907,-0.52371 1.8469,-1.11304 2.35433,-0.35187 -9.0941,16.7655 -38.20997,31.25503 -13.95221,27.62301 5.0322,-1.10637 10.04506,-1.84325 12.88314,-1.69781 z"
       id="path996"
       inkscape:connector-curvature="0"
       sodipodi:nodetypes="cccccccccccccccsscccccc" /><path
       style="fill:#62bd74;fill-opacity:1;stroke:none;stroke-width:0.26458332px;stroke-linecap:butt;stroke-linejoin:miter;stroke-opacity:1"
       d="m -246.0625,281.50298 c -1.13261,-2.18389 -4.7721,-8.52729 -6.43304,-10.66404 -2.32657,-3.10668 0.53175,5.97848 0.81548,6.70863 0.4304,1.69735 2.00702,2.65162 5.61756,3.95543 z"
       id="path1000"
       inkscape:connector-curvature="0"
       sodipodi:nodetypes="ccccc" /><path
       style="fill:url(#linearGradient1006);fill-opacity:1;stroke:none;stroke-width:0.26458332px;stroke-linecap:butt;stroke-linejoin:miter;stroke-opacity:1"
       d="m -191.25595,381.85566 -10.01637,0.75594 -12.6622,-0.18899 c -28.13292,-0.88106 -45.69978,-8.24938 -70.68155,-17.76486 l -32.12797,-12.28425 c -34.03957,-14.01166 -69.79147,-17.15689 -101.29762,-14.36308 l -7.05051,1.08452 -2.67272,0.0668 4.20952,-2.93994 4.94448,-2.00454 5.07813,-1.40316 2.47224,-0.20045 -0.86863,1.06907 2.47224,-0.53454 5.61266,-0.60134 7.91419,-2.23771 6.61458,-1.51189 9.35493,-2.74034 1.60639,-0.28347 1.13392,-0.75597 2.5041,-0.75594 15.10498,-5.27862 14.29893,-5.74628 8.81893,-3.29094 -5.21078,5.16181 -17.2389,13.4303 c -0.74934,0.73201 0.15973,1.30539 0.66818,2.00451 2.66405,1.56314 5.30611,1.14356 8.28535,1.06908 -1.95456,1.61005 -8.63284,4.67682 -4.85974,5.5588 0.5564,0.18045 1.22069,0.27683 1.6777,0.41499 3.0171,0.7163 4.66712,0.30308 7.65402,-0.23623 l 3.68525,-0.99218 c 3.08959,-0.82332 8.4853,-2.10853 12.12512,-1.94488 2.74103,0.12324 4.48627,1.06816 3.5009,3.65081 -0.45139,1.21472 -1.50823,2.18442 -2.32674,3.09133 -1.61746,1.39415 -0.37887,1.95614 1.38915,2.18906 6.31611,1.01001 12.6087,-1.67144 17.50526,-4.21758 6.06702,-3.07948 8.34504,-4.17299 14.3057,-7.78133 4.09174,0.59769 9.17217,5.19986 15.95104,3.23292 3.62249,-1.16706 6.45613,-3.87434 11.33982,-6.22054 12.64384,-5.37772 14.43136,-6.34522 19.72167,-9.77096 6.26798,-3.15699 12.6548,-2.31742 16.2655,-1.69542 4.54336,0.78267 7.03402,2.99744 11.67108,5.59964 l 17.99389,8.45347 3.27405,2.4054 2.73952,1.40317 4.87767,0.26728 4.07586,0.73499 1.73725,0.60134 2.67269,2.33863 2.87315,2.87313 9.78762,11.13182 c 6.96914,9.82418 3.99285,9.52472 26.56776,16.68407 -2.79143,1.1601 -5.31558,2.18189 -7.66431,3.09322 -9.31021,3.61243 -15.86391,5.48912 -25.38104,7.36396 -4.19333,0.82607 -8.87087,1.5025 -14.42632,2.01537 z"
       id="path1004"
       inkscape:connector-curvature="0"
       sodipodi:nodetypes="ccccccccccccccccccccccccccccccccsccccccccscccccccccccsscc" /><path
       style="fill:url(#linearGradient1058);fill-opacity:1;stroke:none;stroke-width:0.26458332px;stroke-linecap:butt;stroke-linejoin:miter;stroke-opacity:1"
       d="m -232.65812,306.35442 7.88445,6.41448 -0.13364,0.53454 -6.07722,-1.15258 c -4.21294,-0.88482 -9.0731,-0.97757 -12.34639,-3.6136 -1.94705,-1.58085 -3.53225,-3.59209 -4.96247,-5.25642 -4.15849,-4.12636 -3.23909,-4.99371 -5.87993,-12.42804 -0.3613,-0.88449 -1.13031,-2.53494 0.20932,-2.84949 0.88281,-0.0296 1.57161,0.34905 2.23562,0.9606 0.7134,0.65703 1.39819,1.58284 2.26425,2.55985 3.07536,3.46932 6.25345,6.05718 9.72336,9.01756 z"
       id="path1002"
       inkscape:connector-curvature="0"
       sodipodi:nodetypes="ccccccccsscc" /><path
       style="fill:#1f94cd;fill-opacity:1;stroke:none;stroke-width:0.26458332px;stroke-linecap:butt;stroke-linejoin:miter;stroke-opacity:1"
       d="m -240.93334,344.11769 c -1.4109,3.01172 -2.814,5.80131 -4.60919,7.91352 -1.74801,2.05669 -3.86777,3.69118 -6.72842,4.8709 -2.23893,1.045 -4.76828,1.92732 -6.53863,1.68502 -1.07754,-0.16321 -0.84459,-0.32322 -0.15135,-1.01644 3.99304,-3.27618 10.27792,-9.74535 17.49401,-13.86854 1.1653,-0.66753 1.02282,-0.6291 0.53358,0.41554 z"
       id="path1006"
       inkscape:connector-curvature="0"
       sodipodi:nodetypes="csccccc" /><path
       style="fill:url(#linearGradient1066);fill-opacity:1;stroke:none;stroke-width:0.26458332px;stroke-linecap:butt;stroke-linejoin:miter;stroke-opacity:1"
       d="m -241.76497,324.05111 c -0.94028,4.59748 -5.04694,7.51413 -7.76137,9.56805 -1.88085,1.4354 -5.80294,4.02976 -7.51617,5.79485 -0.5273,0.71343 -0.59425,1.26228 0.59742,1.75228 2.87539,0.69882 1.24399,2.14149 -0.4009,3.07358 l -2.87315,1.26955 c -10.70587,4.82883 -16.65785,4.70163 -27.46194,3.87541 -2.18473,0.063 -2.13841,-0.85779 0.37824,-1.42608 2.13215,-0.48743 5.14727,-1.89983 7.77348,-3.11751 6.83223,-3.0873 11.07615,-5.92356 17.47837,-9.86057 5.17432,-2.8813 12.26817,-7.17583 18.16355,-11.2179 1.7916,-1.13042 2.296,-2.38346 1.62247,0.28834 z"
       id="path1008"
       inkscape:connector-curvature="0"
       sodipodi:nodetypes="cccccccccccc" /><path
       style="fill:url(#linearGradient1008);fill-opacity:1;stroke:none;stroke-width:0.26458332px;stroke-linecap:butt;stroke-linejoin:miter;stroke-opacity:1"
       d="m -294.26376,305.41897 c -0.20893,0.33753 -0.68111,1.13187 -0.87276,1.48044 -5.8726,10.68092 -14.04688,16.28788 -19.84464,21.77666 -6.23455,5.67807 1.65061,5.2585 6.76519,4.36591 7.7388,-1.31288 4.99552,-1.82699 12.88314,-1.69784 l -6.95362,4.20944 -8.14709,4.07587 c -5.41183,3.26461 -10.13033,4.52578 -16.71755,3.56493 -1.70935,-0.30348 -2.94449,-0.10975 -1.46428,-1.88778 1.56721,-1.93633 2.97286,-3.46849 2.74691,-4.90535 -0.55935,-2.18718 -2.34735,-1.82592 -4.32814,-1.88713 -4.89534,-0.0652 -9.38921,1.30694 -14.0452,2.59858 l -3.4018,0.61423 -3.35452,0.18899 -4.205,-0.94496 c -0.82287,-0.39163 -0.95407,-0.3444 -0.59944,-1.15009 l 5.81311,-4.20947 c 4.21491,0.0916 8.79101,-0.43346 12.51872,-2.2274 2.22136,-1.09526 4.07111,-2.90238 5.82123,-4.62446 3.82382,-3.82747 9.35652,-6.15003 12.26241,-6.91252 14.07673,-2.91382 10.79544,-6.06888 22.769,-12.07618 1.05011,-0.63312 2.01276,-1.1856 2.35433,-0.35187 z"
       id="path1010"
       inkscape:connector-curvature="0"
       sodipodi:nodetypes="cscccccccccccccccccccc" /><path
       style="fill:#188bc9;fill-opacity:1;stroke:none;stroke-width:0.26458332px;stroke-linecap:butt;stroke-linejoin:miter;stroke-opacity:1"
       d="m -299.64024,293.01619 c 3.41158,-2.56573 16.82679,-11.27987 25.15443,-16.86321 l 0.61353,0.11812 c -3.58619,4.09004 -8.83235,8.94441 -13.33418,12.49768 -3.79944,2.18536 -8.06831,3.99643 -12.496,4.79141 -1.38812,0.43399 -0.37278,-0.21602 0.0622,-0.544 z"
       id="path1012"
       inkscape:connector-curvature="0"
       sodipodi:nodetypes="ccccccc" /><path
       style="fill:url(#linearGradient1010);fill-opacity:1;stroke:none;stroke-width:0.26458332px;stroke-linecap:butt;stroke-linejoin:miter;stroke-opacity:1"
       d="m -300.17709,286.2758 c -6.25921,-0.14597 -12.2581,-3.69577 -17.02319,-6.01929 l -5.12677,-2.49992 c -3.04509,-1.82601 -6.32252,-1.91165 -9.76345,-2.14625 -8.27452,0.40711 -8.86493,1.39226 -13.02389,4.11173 -1.97769,1.33564 -4.23324,2.89175 -6.61232,4.31536 l -3.07358,2.27179 -2.40544,1.60361 -5.21176,2.53905 -2.67269,1.20272 -4.40994,3.47451 -3.07358,2.80632 -2.2718,1.8709 -15.7689,11.8935 -11.0917,8.1517 -13.63075,9.88899 -8.21852,6.48129 4.41531,-1.4754 5.07813,-1.40313 3.00141,-0.72962 -0.86863,1.06905 c 12.8774,-2.19158 24.53795,-4.70043 33.57499,-7.90928 7.11417,-1.42927 11.33929,-4.18924 16.44197,-5.90586 l 13.98511,-5.57517 11.43378,-4.34672 17.5759,-9.2604 c 1.0477,-0.49572 1.64412,-1.39574 2.36234,-2.26788 l 10.79873,-7.96552 z"
       id="path1018"
       inkscape:connector-curvature="0"
       sodipodi:nodetypes="ccccccccccccccccccccccccccccc" /><path
       style="fill:#2dc3f3;fill-opacity:1;stroke:none;stroke-width:0.26458332px;stroke-linecap:butt;stroke-linejoin:miter;stroke-opacity:1"
       d="m -317.85029,286.20899 c 3.5897,0.93175 7.08434,2.43595 10.54569,3.7475 l 1.54827,0.49539 c -5.18407,3.20496 -9.70219,6.68207 -13.16107,10.2334 -1.90134,-2.11544 -3.87172,-3.999 -6.23949,-5.53804 -1.00156,-0.68686 -0.34974,-1.15134 0.49389,-1.3525 1.18375,-0.28007 2.39052,-0.33168 3.62204,-0.50946 3.06733,-0.13223 3.01813,-1.76183 1.07838,-3.36553 -2.93951,-2.47795 -5.49575,-5.27745 -8.00252,-8.19043 -1.5156,-1.81648 -0.20909,-1.3155 1.90368,-0.54342 2.24998,0.82221 7.27039,4.10634 8.21113,5.02309 z"
       id="path1016"
       inkscape:connector-curvature="0"
       sodipodi:nodetypes="cccccccccsc" /><path
       style="fill:url(#linearGradient1012);fill-opacity:1;stroke:none;stroke-width:0.26458332px;stroke-linecap:butt;stroke-linejoin:miter;stroke-opacity:1"
       d="m -356.58948,317.85848 c 10.67688,-4.16105 13.3103,-5.35392 20.09618,-7.9128 l 2.55133,-1.60641 c 1.122,-1.36291 1.64111,-2.39379 2.14274,-3.93731 1.08959,-3.35711 2.1938,-6.10457 -0.927,-7.22107 -2.63989,-1.25321 -1.23549,-9.60022 -0.15796,-11.80713 v -0.93544 c -6.13559,7.14306 -11.42486,11.27794 -16.97162,17.77344 z"
       id="path1020"
       inkscape:connector-curvature="0"
       sodipodi:nodetypes="ccccccccc" /><path
       style="fill:#095ca9;fill-opacity:1;stroke:none;stroke-width:0.26458332px;stroke-linecap:butt;stroke-linejoin:miter;stroke-opacity:1"
       d="m -338.49685,282.30017 0.11366,0.64384 -0.63783,0.8032 -1.93712,2.66946 -2.66946,2.9293 -2.55135,3.07108 -3.82699,4.06323 -2.03163,2.12611 0.33073,-2.12611 1.32292,-2.3151 1.13392,-2.40959 1.13393,-1.7009 1.65364,-1.7009 1.70091,-1.60639 2.55132,-1.84264 2.40961,-1.7009 z"
       id="path1022"
       inkscape:connector-curvature="0" /><path
       style="fill:#023b85;fill-opacity:1;stroke:none;stroke-width:0.26458332px;stroke-linecap:butt;stroke-linejoin:miter;stroke-opacity:1"
       d="m -378.35416,325.77344 c 5.06183,-3.74657 9.2522,-9.03225 12.19491,-13.67272 0.78393,-6.35577 4.53599,-10.42823 8.47183,-14.55555 1.9127,-2.18243 3.20753,-3.29631 4.76264,-5.72795 1.83446,-2.55221 2.05933,-2.15657 -0.89995,-1.02786 -2.47689,1.41007 -4.562,2.59982 -7.28605,4.29111 l -9.37065,7.17714 -8.37311,4.09681 -5.039,5.54112 -18.88164,11.56414 -9.15397,10.22303 8.0849,-1.13589 c 9.42432,-2.34212 18.77793,-4.67782 25.49009,-6.77338 z"
       id="path1024"
       inkscape:connector-curvature="0"
       sodipodi:nodetypes="ccccccccccccc" /><path
       style="fill:#158db8;fill-opacity:1;stroke:none;stroke-width:0.26458332px;stroke-linecap:butt;stroke-linejoin:miter;stroke-opacity:1"
       d="m -266.97458,276.4675 c -2.42309,6.00191 -2.7017,6.86555 -6.2083,8.68071 -1.29157,0.65356 -2.69665,1.57527 -3.69678,1.94437 -0.3692,0.13625 -0.87221,-0.0885 -1.10497,-0.0207 0.44674,-1.46529 3.09374,-3.63855 7.00437,-8.23813 l 2.46078,-2.90891 c 1.26196,-1.28508 2.72347,-1.5696 1.5449,0.54265 z"
       id="path1014"
       inkscape:connector-curvature="0"
       sodipodi:nodetypes="ccscccc" /><path
       style="fill:#1184c7;fill-opacity:1;stroke:none;stroke-width:0.26458332px;stroke-linecap:butt;stroke-linejoin:miter;stroke-opacity:1"
       d="m -291.17529,319.26144 c 5.76931,-3.02262 12.36772,-8.69288 23.34198,-24.65823 -0.034,-1.09914 -1.18638,-0.43865 -1.6782,-0.0473 -3.07247,2.03083 -5.88807,4.41381 -8.77345,6.69627 -8.42662,6.71192 -15.3649,14.21752 -22.30059,18.61535 6.51664,-0.20057 8.0324,-0.51952 9.41026,-0.60609 z"
       id="path998"
       inkscape:connector-curvature="0"
       sodipodi:nodetypes="cccccc" /><path
       style="fill:url(#linearGradient1014);fill-opacity:1;stroke:none;stroke-width:0.26458332px;stroke-linecap:butt;stroke-linejoin:miter;stroke-opacity:1"
       d="m -143.72419,369.43003 c -10.6,3.95648 -20.52424,8.41453 -31.6242,9.89945 -0.23741,0.0494 -1.76736,0.1749 -2.15869,0.0694 -0.61455,-0.16571 -1.33404,-0.5517 -1.89189,-1.25006 -15.48817,-9.57124 -29.4313,-18.65893 -38.18359,-26.12537 -1.00006,-1.26861 -0.41194,-1.69256 0.92429,-1.99649 2.53477,-0.41406 3.75265,-0.53954 6.51417,-0.7982 1.35399,-0.0161 1.9798,-0.28927 0.48567,-1.98169 -1.20127,-1.52749 -2.97938,-2.61728 -4.38233,-3.66487 -5.96255,-4.45836 -10.10123,-8.71892 -15.3872,-13.84167 9.76051,1.14562 10.96237,1.18302 21.98114,5.64988 1.88384,1.34644 -0.84948,1.34588 0.10772,2.78325 1.6684,2.85205 10.60893,7.39021 14.50382,8.79572 18.1514,8.31067 52.6994,24.02317 49.11109,22.46066 z"
       id="path992"
       inkscape:connector-curvature="0"
       sodipodi:nodetypes="ccscccccccccccc" /></g><g
     id="text1018"
     style="font-style:normal;font-variant:normal;font-weight:bold;font-stretch:normal;font-size:18.93321228px;line-height:1.25;font-family:Gotham;-inkscape-font-specification:'Gotham Bold';letter-spacing:0px;word-spacing:0px;fill:#263d8a;fill-opacity:1;stroke:none;stroke-width:0.29508027;stroke-miterlimit:4;stroke-dasharray:none;stroke-opacity:1"
     transform="matrix(1.9711465,0,0,1.9724571,-816.5909,245.42031)"
     aria-label="TM"><path
       sodipodi:nodetypes="ccccccccc"
       inkscape:connector-curvature="0"
       id="path1023"
       style="font-style:normal;font-variant:normal;font-weight:normal;font-stretch:normal;font-family:Gotham;-inkscape-font-specification:Gotham;fill:#263d8a;fill-opacity:1;stroke:none;stroke-width:0.29508027;stroke-miterlimit:4;stroke-dasharray:none;stroke-opacity:1"
       d="m 799.21358,-13.170671 h 4.26025 v -2.147273 h -10.9426 v 2.147273 h 4.21299 v 11.2476698 h 2.46936 z" /><path
       sodipodi:nodetypes="cccccccccccccc"
       inkscape:connector-curvature="0"
       id="path1025"
       style="font-style:normal;font-variant:normal;font-weight:normal;font-stretch:normal;font-family:Gotham;-inkscape-font-specification:Gotham;fill:#263d8a;fill-opacity:1;stroke:none;stroke-width:0.29508027;stroke-miterlimit:4;stroke-dasharray:none;stroke-opacity:1"
       d="m 816.70811,-11.600151 v 9.6771498 h 2.26137 V -15.317944 h -2.76239 c -1.11946,2.03696 -2.39817,4.153497 -3.76928,6.3161996 l -4.10958,-6.4106626 h -2.57334 v 13.4894058 l 2.44565,-0.047231 -0.11816,-9.6582168 4.05287,6.3631056 h 0.52934 z" /></g></g></svg>